<svg xmlns="http://www.w3.org/2000/svg" viewBox="0 0 640 483.33358"><defs><style>.cls-1{fill:#545454;}.cls-2{fill:#878787;}.cls-3{fill:#42b0d5;}.cls-4{fill:#00243d;}.cls-5{fill:#cfcfcf;}.cls-6{fill:#f7f7f7;}.cls-7{fill:#fdfdfd;}.cls-8{fill:#ddd;}.cls-9{fill:#fff;}</style></defs><g id="SLIDE_2" data-name="SLIDE 2"><g id="big_truck" data-name="big truck"><path class="cls-1" d="M533.46773,396.59323c-.34345-25.11812-8.17264-31.462-27.04968-31.462-18.52546,0-26.44883,6.241-26.80931,31.462Z"/><rect class="cls-2" x="112.92817" y="368.91861" width="336.45979" height="21.95907"/><path class="cls-3" d="M544.5478,337.975,526.31418,298.7269a6.20459,6.20459,0,0,0-5.62282-3.5883H455.57822a6.21,6.21,0,0,0-6.198,6.18934v96.83283h32.40646c.558-22.12214,7.84622-27.79644,24.96355-27.79644,16.79117,0,24.16531,5.56269,24.732,27.79644h7.44251a6.18244,6.18244,0,0,0,6.19812-6.18934V340.59336a6.20255,6.20255,0,0,0-.575-2.61833"/><path class="cls-4" d="M179.28191,395.45743A19.58981,19.58981,0,1,1,159.692,375.86769a19.60057,19.60057,0,0,1,19.58988,19.58974"/><path class="cls-5" d="M170.74027,395.45743a11.05256,11.05256,0,1,1-11.05689-11.0481,11.06238,11.06238,0,0,1,11.05689,11.0481"/><path class="cls-4" d="M224.20865,395.45743a19.59407,19.59407,0,1,1-19.58987-19.58974,19.60056,19.60056,0,0,1,19.58987,19.58974"/><path class="cls-5" d="M215.67225,395.45743a11.05682,11.05682,0,1,1-11.06539-11.0481,11.06419,11.06419,0,0,1,11.06539,11.0481"/><path class="cls-4" d="M387.75741,395.45743A19.59407,19.59407,0,1,1,368.159,375.86769a19.61339,19.61339,0,0,1,19.59839,19.58974"/><path class="cls-5" d="M379.2159,395.45743a11.05256,11.05256,0,1,1-11.0654-11.0481,11.06419,11.06419,0,0,1,11.0654,11.0481"/><path class="cls-4" d="M432.68428,395.45743a19.59407,19.59407,0,1,1-19.58987-19.58974,19.60056,19.60056,0,0,1,19.58987,19.58974"/><path class="cls-5" d="M424.13754,395.45743a11.05256,11.05256,0,1,1-11.05688-11.0481,11.05693,11.05693,0,0,1,11.05688,11.0481"/><path class="cls-4" d="M526.23009,395.45743a19.59407,19.59407,0,1,1-19.58988-19.58974,19.60057,19.60057,0,0,1,19.58988,19.58974"/><path class="cls-5" d="M517.68858,395.45743a11.05256,11.05256,0,1,1-11.04837-11.0481,11.06065,11.06065,0,0,1,11.04837,11.0481"/><path class="cls-6" d="M532.45048,347.98793H496.74742a2.33188,2.33188,0,0,1-2.335-2.33487V307.50367a2.34669,2.34669,0,0,1,2.335-2.35217H517.9427a2.33676,2.33676,0,0,1,2.1118,1.3391l14.49913,30.79255a2.17268,2.17268,0,0,1,.23159.99577v7.37414a2.33166,2.33166,0,0,1-2.33474,2.33487"/><path class="cls-7" d="M437.9723,368.92372V287.50864a9.37535,9.37535,0,0,0-9.36569-9.357H131.19755a9.38814,9.38814,0,0,0-9.37421,9.357v81.41508Z"/><path class="cls-8" d="M140.784,354.92077h-3.1677a1.76233,1.76233,0,0,1-1.74267-1.77686V293.38728a1.75694,1.75694,0,0,1,1.74267-1.777h3.1677a1.7935,1.7935,0,0,1,1.78551,1.777v59.75663a1.7991,1.7991,0,0,1-1.78551,1.77686"/><path class="cls-8" d="M156.41627,354.92077h-3.142a1.76038,1.76038,0,0,1-1.75983-1.77686V293.38728a1.7551,1.7551,0,0,1,1.75983-1.777h3.142a1.78788,1.78788,0,0,1,1.7855,1.777v59.75663a1.79341,1.79341,0,0,1-1.7855,1.77686"/><path class="cls-8" d="M172.03915,354.92077H168.88a1.75514,1.75514,0,0,1-1.734-1.77686V293.38728a1.74979,1.74979,0,0,1,1.734-1.777h3.15918a1.7972,1.7972,0,0,1,1.80267,1.777v59.75663a1.80276,1.80276,0,0,1-1.80267,1.77686"/><path class="cls-8" d="M187.67055,354.92077h-3.142a1.75857,1.75857,0,0,1-1.75118-1.77686V293.38728a1.75327,1.75327,0,0,1,1.75118-1.777h3.142a1.80273,1.80273,0,0,1,1.80267,1.777v59.75663a1.80835,1.80835,0,0,1-1.80267,1.77686"/><path class="cls-8" d="M203.30287,354.92077h-3.15919a1.75514,1.75514,0,0,1-1.734-1.77686V293.38728a1.74979,1.74979,0,0,1,1.734-1.777h3.15919a1.80273,1.80273,0,0,1,1.80266,1.777v59.75663a1.80835,1.80835,0,0,1-1.80266,1.77686"/><path class="cls-8" d="M218.93518,354.92077H215.776a1.75514,1.75514,0,0,1-1.734-1.77686V293.38728a1.74979,1.74979,0,0,1,1.734-1.777h3.15918a1.78788,1.78788,0,0,1,1.78551,1.777v59.75663a1.79341,1.79341,0,0,1-1.78551,1.77686"/><path class="cls-8" d="M234.56763,354.92077h-3.142a1.76589,1.76589,0,0,1-1.75983-1.77686V293.38728a1.76054,1.76054,0,0,1,1.75983-1.777h3.142a1.78046,1.78046,0,0,1,1.77686,1.777v59.75663a1.786,1.786,0,0,1-1.77686,1.77686"/><path class="cls-8" d="M250.21448,354.92077h-3.17634a1.768,1.768,0,0,1-1.74267-1.77686V293.38728a1.7625,1.7625,0,0,1,1.74267-1.777h3.17634a1.78606,1.78606,0,0,1,1.77686,1.777v59.75663a1.79161,1.79161,0,0,1-1.77686,1.77686"/><path class="cls-8" d="M265.83645,354.92077h-3.15918a1.76242,1.76242,0,0,1-1.74268-1.77686V293.38728a1.757,1.757,0,0,1,1.74268-1.777h3.15918a1.80273,1.80273,0,0,1,1.80267,1.777v59.75663a1.80835,1.80835,0,0,1-1.80267,1.77686"/><path class="cls-8" d="M281.47833,354.92077h-3.1677a1.76966,1.76966,0,0,1-1.75132-1.77686V293.38728a1.76423,1.76423,0,0,1,1.75132-1.777h3.1677a1.7935,1.7935,0,0,1,1.78551,1.777v59.75663a1.7991,1.7991,0,0,1-1.78551,1.77686"/><path class="cls-8" d="M297.1003,354.92077H293.924a1.75914,1.75914,0,0,1-1.72551-1.77686V293.38728a1.7537,1.7537,0,0,1,1.72551-1.777h3.17635a1.80273,1.80273,0,0,1,1.80266,1.777v59.75663a1.80835,1.80835,0,0,1-1.80266,1.77686"/><path class="cls-8" d="M312.73261,354.92077h-3.17634a1.75914,1.75914,0,0,1-1.72551-1.77686V293.38728a1.7537,1.7537,0,0,1,1.72551-1.777h3.17634a1.814,1.814,0,0,1,1.80267,1.777v59.75663a1.81979,1.81979,0,0,1-1.80267,1.77686"/><path class="cls-8" d="M328.36493,354.92077h-3.1677a1.76076,1.76076,0,0,1-1.73416-1.77686V293.38728a1.75535,1.75535,0,0,1,1.73416-1.777h3.1677a1.81028,1.81028,0,0,1,1.81131,1.777v59.75663a1.81594,1.81594,0,0,1-1.81131,1.77686"/><path class="cls-8" d="M343.99724,354.92077h-3.15918a1.76241,1.76241,0,0,1-1.74267-1.77686V293.38728a1.757,1.757,0,0,1,1.74267-1.777h3.15918a1.81028,1.81028,0,0,1,1.81132,1.777v59.75663a1.81594,1.81594,0,0,1-1.81132,1.77686"/><path class="cls-8" d="M359.62956,354.92077h-3.142a1.76589,1.76589,0,0,1-1.75984-1.77686V293.38728a1.76055,1.76055,0,0,1,1.75984-1.777h3.142a1.78788,1.78788,0,0,1,1.78551,1.777v59.75663a1.79341,1.79341,0,0,1-1.78551,1.77686"/><path class="cls-8" d="M375.26109,354.92077h-3.15918a1.76242,1.76242,0,0,1-1.74268-1.77686V293.38728a1.757,1.757,0,0,1,1.74268-1.777h3.15918a1.78788,1.78788,0,0,1,1.78551,1.777v59.75663a1.79341,1.79341,0,0,1-1.78551,1.77686"/><path class="cls-8" d="M390.89851,354.92077h-3.15918a1.76241,1.76241,0,0,1-1.74267-1.77686V293.38728a1.757,1.757,0,0,1,1.74267-1.777h3.15918a1.78788,1.78788,0,0,1,1.78551,1.777v59.75663a1.79341,1.79341,0,0,1-1.78551,1.77686"/><path class="cls-8" d="M406.53083,355.18772h-3.142a1.76573,1.76573,0,0,1-1.75984-1.77686V293.68a1.75381,1.75381,0,0,1,1.75984-1.79415h3.142a1.77869,1.77869,0,0,1,1.77686,1.79415v59.73082a1.79151,1.79151,0,0,1-1.77686,1.77686"/><path class="cls-8" d="M422.14769,355.18772H418.9885a1.76055,1.76055,0,0,1-1.734-1.77686V293.68a1.74856,1.74856,0,0,1,1.734-1.79415h3.15919A1.79171,1.79171,0,0,1,423.959,293.68v59.73082a1.80468,1.80468,0,0,1-1.81131,1.77686"/><polygon points="241.455 333.156 241.455 313.944 246.563 313.944 253.044 328.288 259.448 313.944 264.35 313.944 264.35 333.156 260.117 333.156 260.117 321.996 255.259 333.156 250.752 333.156 245.833 322.022 245.833 333.156 241.455 333.156"/><path d="M271.17424,333.15321H266.221l8.533-19.22914h6.12935l8.57583,19.22914h-4.90173l-1.6912-3.82867H272.82247Zm10.15555-7.44278-3.54547-8.14657-3.44238,8.14657Z"/><polygon points="291.441 333.156 291.441 313.944 309.804 313.944 309.804 317.772 295.88 317.772 295.88 321.567 307.821 321.567 307.821 325.352 295.88 325.352 295.88 329.31 309.838 329.31 309.838 333.156 291.441 333.156"/><path d="M313.40131,333.16421V313.90927h15.38344a2.95346,2.95346,0,0,1,3.22769,3.22782v6.48119c0,1.468-1.31343,2.81573-3.84583,2.81573h-.45492l4.47247,6.7302h-4.92753l-4.25778-6.57563H317.9254v6.57563Zm4.52409-10.4043h9.64888v-4.979H317.9254Z"/><path d="M340.11107,333.17626H338.5916a2.647,2.647,0,0,1-2.95313-2.83276v-2.50673h4.4726v1.48515h9.49432V325.373H338.71172a2.78684,2.78684,0,0,1-2.98733-2.78129v-5.71726a2.92733,2.92733,0,0,1,3.0303-2.92733h12.44745a2.81938,2.81938,0,0,1,2.84141,3.05609v2.30056h-4.43816V317.793h-9.49432v3.79435h10.85935a2.92517,2.92517,0,0,1,3.07313,3.07326V330.146a2.73434,2.73434,0,0,1-2.97881,3.03029Z"/><polygon points="358.336 333.176 358.336 313.947 362.886 313.947 362.886 321.604 371.573 313.947 377.754 313.947 367.384 322.866 378.123 333.176 371.736 333.176 362.886 324.429 362.886 333.176 358.336 333.176"/><path class="cls-3" d="M223.0532,340.39491a4.968,4.968,0,0,1-4.979,4.96185H186.66351a4.97527,4.97527,0,0,1-4.98752-4.96185v-33.7111a4.9881,4.9881,0,0,1,4.98752-4.9705h31.41068a4.9808,4.9808,0,0,1,4.979,4.9705Z"/><polygon class="cls-9" points="208.967 322.403 217.131 312.17 217.105 312.136 205.31 317.819 202.391 305.054 202.34 305.054 199.43 317.819 187.643 312.136 187.609 312.17 195.773 322.403 183.977 328.086 183.986 328.129 197.077 328.129 194.159 340.894 194.202 340.928 202.374 330.678 210.538 340.928 210.564 340.894 207.662 328.129 220.753 328.129 220.771 328.086 208.967 322.403"/></g></g></svg>